<?xml version="1.0" encoding="UTF-8"?>
<svg id="Layer_2" data-name="Layer 2" xmlns="http://www.w3.org/2000/svg" viewBox="0 0 135.21 135.21">
  <defs>
    <style>
      .cls-1 {
        fill: none;
      }
    </style>
  </defs>
  <g id="Layer_1-2" data-name="Layer 1">
    <g>
      <g>
        <path d="M84.88,55.54c-10.87-8.75-26.63-7.48-35.3,2.84-8.67,10.4-6.85,25.92,4.02,34.75,10.79,8.82,26.63,7.56,35.22-2.84,8.67-10.32,6.85-25.92-3.94-34.75ZM87.16,91.17c-8.85,9.21-24.12,9.17-34.09-.09-9.98-9.26-10.89-24.24-2.03-33.46s24.12-9.17,34.09.09c9.98,9.26,10.89,24.24,2.03,33.46Z"/>
        <path d="M71.25,67.59c0,.47,1.1.47,1.5.55.24-.16.08-.39.32-.63.08-.08.16-.08.24-.16.16-.08.39-.32.39-.47,0-.39-.32-.32-.55-.47-.16-.08-.24-.16-.39-.24-.24,0-.24.16-.47.24-.16.08-.32.08-.32.16-.24.16,0,.47-.32.71-.24,0-.39.08-.39.32Z"/>
        <path d="M72.04,68.46c-.08.08-.16.24-.16.39s.24.16.47.32c.16,0,.24.08.39.16.16,0,.39-.16.63-.08.16,0,.32.16.47.16.08,0,.24-.08.39-.08h.55c.24-.16.32-.55.16-.79.16-.24.08-.71.32-.87.16-.08.55-.08.71-.24.24-.16.16-.47,0-.79-.24,0-.39-.16-.63-.16-.16,0-.24.16-.32.08s0-.16,0-.32c-.39-.24-.71.16-.87.39,0,.16,0,.24.08.32-.24.16-.16.39-.16.55h-.47c-.16.08-.16.32-.24.39s-.24.08-.32.16-.08.24-.16.24c-.24.24-.63,0-.87.16Z"/>
        <path d="M70.94,63.34h.32c.08,0,.16-.08.32-.08h.39c.24-.08.39-.16.55-.08.39,0,1.18.55,1.02-.24.39-.47.95-.87,1.42-1.26.08,0,.16-.16.24-.24.24-.08.47-.24.55-.47-.08-.08-.32,0-.32-.08-.24-.39-.08-.95-.16-1.34-.32-.16-.87-.08-1.26-.08-.16-.08-.39-.16-.55-.08-.08,0-.32.16-.39.24-.16.16-.24.47-.39.63-.24.32-.71.47-1.02.71-.32.32-.55.55-.87.79-.16.16-.32.32-.47.39-.16.16-.47.16-.71.24-.08.08-.08.24-.16.32-.08.32-.08.71-.24.95,0,.24-.16.47-.08.63.32,0,.39-.16.63-.32.08,0,.16,0,.32-.08.08-.08.24-.24.39-.32s.39-.24.47-.24Z"/>
        <path d="M63.22,81.3c.16.63.47,1.18.63,1.73.39,0,.79.08,1.18.16.16.08.32.16.47.16.08.08.16,0,.24,0,.16,0,.32.08.47.08.32.08.55,0,.71.16.16.08.16.24.24.32,0,.08.08.08.16.16s.08.16.16.24c.08.16.24.24.32.39.08.08.08.24.16.32s.39.32.39.47c0,.08-.16.24-.24.39,0,.08,0,.24-.08.32,0,.08-.08.16-.08.24-.08.08-.08.16-.08.32-.08.39-.32.79-.24,1.34,0,.16.08.32.08.47.08.08,0,.24,0,.39.08.16.08.32.08.47,0,.08-.08.24-.16.39-.16.47-.16.95-.32,1.42.16.24.16.63.39.87,0,.39.24.71.32,1.1.08.08.08.24.08.39.08.39.16.87.08,1.34-.08.32-.32.63-.32.95,0,.16.08.32,0,.39,0,.47-.16.87-.08,1.34h.79c.16,0,.24.08.39.08h1.89c.08,0,.24,0,.39-.08h.71c.16,0,.32-.08.47-.08h.08c.16,0,.32,0,.47-.08h.08c.16,0,.32,0,.47-.08.32-.47.79-.87,1.02-1.42.32-.24.39-.63.63-.79.08-.16.16-.24.24-.39.24-.16.47-.24.71-.47.24-.08.63-.32.71-.55.16-.24.16-.63.32-.95.08-.08.16-.16.16-.24.08-.08.08-.16.08-.24.08-.16.16-.24.16-.32.16-.24.24-.55.32-.71s.16-.24.24-.39c.08-.24.08-.47.24-.63s.32-.16.47-.24c.24-.08.39-.32.63-.47.08,0,.24,0,.32-.08,0,0,.08-.16.16-.16.32-.24.39-.55.71-.79.39-.08.79-.16,1.1-.39.08-.08.08-.16.16-.16.24-.24.47-.39.71-.55.16-.16.24-.24.39-.32.16-.16.39-.24.39-.39-.16-.16-.47-.24-.71-.24-.24-.08-.55-.16-.79-.24h-.24c-.24,0-.39-.16-.63-.08-.24-.08-.24-.32-.39-.47-.08-.24-.32-.47-.39-.63-.08-.08-.08-.16-.16-.24l-.24-.24v-.32c-.08-.24-.08-.47-.16-.71-.08-.16-.16-.39-.24-.55,0-.08,0-.24-.08-.39,0-.08-.08-.08-.08-.16s0-.16-.08-.24c-.08-.16-.24-.32-.47-.55-.16-.32-.24-.55-.47-.87-.16-.24-.32-.47-.47-.79,0-.24-.32-.39-.16-.63.32,0,.39.32.71.39.24-.24,0-.79.24-.95.16.08.24.24.39.39,0,.24.24.39.32.55,0,.08,0,.24.08.32,0,.16.08.24.16.32v.24c.08.16.16.24.16.32.08.08.08.24.08.32l.16.16c0,.08,0,.24.08.24.08.16.16.24.24.32.39.55.87.95.95,1.65.08.32,0,.63.08.95v.71c.08.16.24.24.47.32.16,0,.47.16.63.16.08,0,.24-.08.32-.08.32-.08.63,0,.95,0,.08-.08.24-.16.32-.16.16-.08.39-.08.47-.16.16-.08.32-.24.47-.39.16-.08.39-.16.55-.32l.24-.24c.08-.08.16-.08.24-.16.16-.16.32-.39.47-.47.08-.16.32-.24.39-.47,0,0-.08-.08-.08-.16-.08-.24-.16-.47-.16-.63-.08-.16,0-.24-.08-.32-.08-.32-.39-.63-.87-.55-.08,0-.24.16-.32.16-.55.24-.87-.24-1.1-.47l-.32-.32c-.08-.08-.24-.16-.24-.32.16-.16.39,0,.55.08.16,0,.39.08.63.16.32.08.71.24,1.18.32h.39c.32,0,.55.24.87.24.16,0,.32-.08.47-.16h.47c.16-.08.24-.16.32-.08.16,0,.24.16.32.24.24.24.79.32.95.55,0,.39.08.79.08,1.1.08.24.16.39.24.63,0,.16,0,.24.08.32,0,.08.16.24.24.32.08.24.08.39.16.39h.24c4.41-9.22,2.05-20.72-6.3-27.89-.16,0-.32.08-.39,0-.08,0-.24-.32-.39-.39-.08,0-.24.08-.32.08-.24,0-.47-.16-.79-.16h-.24c-.16,0-.24-.16-.32-.16-.16,0-.24.16-.39.08-.16.24-.55.24-.79.32-.24.47.24.55.39.87-.08.55.39.63.79.79.24.24.63.24.87.47,0,.39.24.79.24,1.1,0,.16-.08.39-.08.55.08.16.24.32.24.47,0,.32-.24.55-.08.87-.16.32-.16.55-.24.79,0,.16-.08.32-.08.39-.08.08-.16.08-.24.24,0,.08-.08.16-.08.32,0,.08-.08.16-.08.24-.08.24-.16.39-.24.55,0,.08.08.16,0,.32,0,.16-.24.47-.32.63-.08.08-.08.16-.16.24-.08.16-.16.16-.24.32-.08.08-.16.39-.16.63,0,.16.16.32.08.47-.24.16-.39,0-.55-.16-.08,0-.24-.08-.32-.08-.08-.08-.08-.16-.16-.24-.24-.08-.47-.16-.63-.24-.24-.16-.47-.32-.71-.32-.16.08-.24.24-.39.32-.24.08-.32.32-.55.47-.08.08-.24.16-.39.24-.08.16-.24.24-.32.32-.16.08-.24.08-.39.16-.08.08-.16.24-.24.32s-.39.24-.47.32c0,.24.32.24.32.39-.32.24-.63.39-.87.71-.08-.08-.16-.16-.32-.16-.24.16-.39.32-.55.47-.08.08-.08.16-.16.24-.16,0-.32,0-.55.08-.16,0-.39.08-.55,0-.16,0-.24-.16-.39-.24-.08,0-.16.08-.32.08-.24-.08-.39-.32-.63-.32-.08.08-.24.47-.24.63,0,.08.24.24.24.32.08.16.08.39.08.47,0,.16,0,.32-.24.32-.32.08-.24-.32-.39-.47-.08-.08-.16-.24-.24-.24-.24-.16-.39,0-.55.16l-.24.24c-.08.08-.08.16-.16.24l-.32.32c-.16.16-.16.32-.24.39-.08.24-.32.32-.32.63.24.32.55.39.55.95.08.16.32.24.55.39.16.08.39.32.63.24.16,0,.24-.24.39-.32.08-.08.24-.16.32-.24.16-.08.32-.16.39-.24.24-.16.24-.47.71-.39.08.16.08.39.24.39.39.08.71-.16.87.16,0,.16.16.39.16.55v.24c0,.08.08.24.16.39v.32c.08.16.24.24.24.39,0,.24-.63.47-.63.71-.08.24.08.55.32.55.16,0,.24-.16.39-.32.24-.16.32-.32.71-.16.39-.24.16-.87.08-1.42-.08-.16-.39-.32-.16-.55.16.08.24.24.24.47.16.08.24.16.32.32.08.24,0,.47,0,.71s.16.79.32.87h.32c.08,0,.24.08.39,0,.39-.08.32-.55.39-.87.16-.08.47-.08.55.08-.08.24-.24.24-.32.39-.24.39-.24.95.08,1.18.16.16.79.08.79.32,0,.16-.16.24-.24.39s-.08.47-.32.47c-.24-.08-.47-.24-.79-.32-.24-.08-.47,0-.71-.08-.16,0-.24-.08-.39-.08-.47-.08-.87-.16-1.26-.32-.16-.24-.32-.47-.63-.47-.16,0-.24.16-.39.16-.24-.08-.39-.39-.55-.55-.16-.24-.32-.47-.47-.55-.08-.16-.24-.16-.32-.39,0-.16.16-.24.16-.39,0-.24-.16-.32-.24-.47-.16-.08-.32-.24-.47-.24-.24-.08-.55-.08-.79-.16-.16,0-.24-.16-.39-.24-.24-.08-.47-.08-.63-.24-.16-.63-.63-.16-.87,0-.32.08-.47.32-.87.47q-.08.08-.24.16c0,.32-.16.47-.32.63,0,.16,0,.39-.24.47-.16,0-.39-.24-.63-.24-.39-.08-.47.08-.79.32l-1.18.71c-.24.24-.47.39-.79.55-.24.16-.71.39-.79.55-.08.08-.08.24-.08.32l-.24.24v.32c-.08.24-.32.47-.32.79-.16.16-.24.32-.32.55,0,.16.16.32.24.55.08.16.08.39.16.63,0,.08.08.24.16.32Z"/>
        <path d="M47.54,83.27l.08.16c.08.24.79,1.65.95,1.81.16-.24.32-.55.47-.87.24-.16.47-.47.79-.63.16,0,.32,0,.47-.08.08,0,.16-.08.16-.08.08-.08.16,0,.24-.08.08,0,.16,0,.16-.08h.24c.24-.08.39-.24.55-.32.39-.08.79,0,1.26-.08.39-.08.87-.24,1.34-.24h.55c.08,0,.16-.08.24-.08.32-.08.63,0,.95-.08.24.16.39.39.63.39.16.16.32.47.55.39.08,0,.32-.16.47-.32.24-.32.47-.55.71-.79.16-.16.32-.32.39-.47-.08-.16,0-.32,0-.47,0-.24-.16-.47-.24-.63-.16-.39-.24-.87-.47-1.26,0-.08-.08-.16-.08-.24l-.71-1.42c-.08-.16-.32-.32-.24-.55,0-.08.16-.08.32-.08l.16-.16c.16,0,.39.08.47-.08.08-.24,0-.47.08-.71,0-.16.08-.32.16-.47.08-.32-.08-.71-.08-1.02-.16-.39-.24-.47-.63-.63-.08-.16-.08-.47-.16-.79.16-.24.55-.55.63-.95.08-.16,0-.32,0-.47,0-.39.32-.63.24-.87,0-.08-.16-.16-.24-.32-.24-.32-.47-.63-.63-.87,0-.08,0-.16-.08-.24,0-.08-.08-.16-.08-.16,0-.16-.08-.32-.08-.39-.08-.16-.16-.24-.16-.32-.08-.16-.08-.32-.08-.39-.08-.16-.16-.24-.16-.39-.08-.16,0-.39-.08-.63,0-.08-.08-.08-.16-.16,0-.08,0-.24-.08-.32s-.24-.24-.32-.47c-.08-.08-.16-.24-.24-.39-.24-.32-.32-.39-.79-.47-.39-.08-.87,0-1.1-.16,0-.39.08-.95.16-1.26-.16-.32-.47-.71-.24-1.1.24-.08.47-.08.55-.24.16-.08.16-.32.16-.55.08-.24.08-.39.16-.63,0-.08-.08-.16,0-.24.08-.32.32-.16.55-.08.32.16.55.39.87.39.24-.47,0-1.02.08-1.5.08-.16.32-.32.47-.39.08-.16.16-.32.24-.39.24-.08.47-.16.79-.24.32-.16.71-.32,1.02-.39.08.24.16.47.24.79.08.08.08.16.08.32,0,.08-.08.16-.08.24-.16.47-.24.87-.39,1.26-.24.24-.55.39-.79.63,0,.16-.08.32-.08.47.24-.08.39-.24.63-.39.16-.08.16-.16.24-.16.16,0,.32.08.47.08.24-.08.39-.39.71-.39.16,0,.24.24.39.24.16.08.32,0,.55-.08.16-.08.32-.08.47-.16.08,0,.16-.16.24-.16.16-.08.32,0,.47-.16.39.16,1.02.08,1.26.39,0,.24.24.39.39.55,0,.08,0,.16.08.16.08.32.32.55.47.79.16.08.32.24.55.24.16-.32,0-.87.32-1.02.39.08.39.55.47.95.16.24.08.71.24.95.16,0,.39,0,.55-.08.32-.08.39-.24.55-.47,0-.08.08-.16.08-.16.08-.08,0-.24.08-.32,0-.08.08-.08.16-.24,0,0,.08-.16.08-.24.16-.08.39-.16.47-.39v-.24c0-.08.08-.16.08-.24.08-.08.08-.16.08-.24.16-.24.32-.39.47-.55.24-.24.47-.55.71-.71v-.47c-.24-.16-.47.08-.63.08-.39.08-.63-.16-.87-.16-.16.08-.08.32-.24.47-.24-.08-.39.24-.63.16-.08,0-.16-.08-.24-.08-.16-.16-.71-.39-.71-.55s.16-.24.24-.32c.24-.16.39-.24.55-.47.39-.55.55-1.02.87-1.5.16-.24.32-.55.47-.55.24,0,.55.24.63.32.24.16.47.32.63.39.24.08.47.16.63.24.16,0,.32,0,.47.08.16,0,.32.08.39.24.08.24-.24.47-.08.71.16.16.47.24.63.24.08-.16,0-.47.08-.63.08-.24.55-.08.79-.16-.24-.47-.71-.55-.95-.95.16-.24.32-.47.39-.71.24-.16.16-.55.47-.63.16-.08.32,0,.47,0,.16-.08.24-.16.32-.16.16-.24.32-.47.55-.71.32-.08.55-.08.95-.16.16,0,.24-.08.39-.08.08.08.24.16.39.24.08.08.24.16.39.16s.24-.08.39-.08c.08-.08.16,0,.24-.08.16,0,.24-.16.39-.16.08-.24-.16-.47-.16-.63-.08-.24,0-.55,0-.79-.08-.08-.16-.16-.16-.24.16-.16.32-.32.39-.55-.24-.16-.39-.39-.71-.39-.08,0-.24.08-.32.08-.16,0-.24-.08-.32-.16v-.47c-.24-.16-.55-.16-.87-.24-.08,0-.16.16-.24.24-.16.16-.32.24-.39.32-.08.24,0,.39-.16.55h-.39c-.16.08-.32.24-.55.24-.47.16-.71,0-1.02-.16-.47.47-.95-.32-1.34-.47-.16,0-.32,0-.47-.08.08-.24.08-.55-.08-.63-.24,0-.47.16-.63.24h-.39c-.32,0-.71,0-.95-.16-.08,0-.24-.08-.24-.08l-.24-.24c-.24-.08-.47.08-.71.08-.16-.08-.32-.39-.55-.47-1.65.24-3.23.55-4.81,1.1-.16,0-.32.08-.47.08-.71.32-1.42.55-2.13.95h-.16c-.24.16-.55.32-.79.39-.08.08-.16.16-.24.16-.39.24-.71.39-1.02.63.08.16-.16.39-.16.63v.32c-.08.39-.32.79-.55.87-.16,0-.16-.16-.32-.16-.16.08-.24.32-.32.47-.08.08-.32.24-.32.39-.08.32,0,.63-.08,1.02-.08.16-.24.24-.32.47-.08.08-.08.16-.16.32,0,.08-.16.08-.16.24-.32.39-.55.79-.47,1.34-.16.24-.08.47-.08.71-.08.16-.24.24-.24.39-.08.32.08.39.16.55,0,.16-.16.32-.16.47-.08.39-.24.63-.32.95,0,.32.32.55.32.95,0,.08-.08.16-.16.32-.16.24-.24.32-.39.47-.39.32-.71.16-1.18,0-.16,0-.32.08-.47.16-.24.16-.39.24-.55.39,0,.08-.08.16-.16.16-.08.16,0,.32-.08.39-.08.16-.24.16-.39.24-.08,0-.16.08-.16.08-.39.32-.95.55-1.02,1.02.16.39,0,.71-.08.95-.08,0-.08.08-.08.16-.32.47-.63.95-.55,1.65-.16.16-.24.24-.32.39,0,.39-.08.63-.32.63-.16.24-.32.39-.39.63-.08.16-.16.47-.16.63.08.24.24.39.39.63,0,.16.08.32.08.39.16.39.16.55.08,1.02-.24.32-.47.71-.71,1.1-.08.16-.16.24-.24.39-.16.24-.55.55-.55.87.32,2.13.95,4.18,1.81,6.22Z"/>
        <path d="M76.93,68.22c.32-.24.39.39.16.55-.16-.08-.08-.39-.16-.55Z"/>
        <path d="M77.48,70.11l.16-.16c.08,0,.16-.08.24-.16s.16-.08.24-.08h0c.08-.08.16,0,.24,0h.39c.08-.08.24-.08.32-.08h.16c0,.08.08.08.08.08h0l.16-.16h0s.08-.08.16-.08h0c.08-.08.16-.08.16-.08h0c.08-.08.16-.08.16-.08.08-.08.08-.16.16-.16-.08.08-.24.08-.39.08h0c-.32-.08-.39-.47-.55-.71v-.16l-.08-.16.08-.08c.08-.08.24-.16.39-.24h0c0-.08.08-.08.08-.08h-.16c-.08,0-.16-.08-.24-.08s-.08-.08-.08-.08h0c-.08.08-.16.08-.32.16l-.47.24c-.08.16-.08.24-.16.32h0c0,.08-.08.16-.08.24,0,0,0,.08-.08.08,0,.08,0,.16-.08.24-.16.32-.47.32-.87.39,0,0-.08,0-.16.08-.08.16,0,.24.08.32s.16.16.16.24c.08.08.08.16.08.16h0c.08.08.08.16.08.16h0l.16-.16h0Z"/>
        <path d="M79.61,75.47l-.16-.16c-.08,0-.16.08-.16.16-.08.08-.16.08-.16.16v.16c0,.08.08.16.08.24,0,0,.08.08.16.08.16.08.32.08.47.16h.16s0,.08.08.08h.39c.08,0,.16-.08.32-.08h0v-.08c.08,0,.16-.08.24-.08v-.16h0c-.24,0-.39-.08-.55-.08h0c-.16-.08-.32-.08-.47-.08h0c-.24-.08-.32-.16-.39-.32Z"/>
        <path d="M41.87,68.77c-3.55,1.26-6.78.47-10.4-2.05-3.31-2.21-6.54-4.65-9.3-6.07,3.15-.95,5.52-1.34,7.25-.87,4.33,1.18,6.07,5.59,12.92,6.85-.24.71-.39,1.42-.47,2.13Z"/>
        <path d="M31.31,43.33c4.33.71,6.78,2.05,8.35,3.78,2.92,3.15,3.07,7.33,7.88,9.45q0,.08-.08.16c-.55.63-1.1,1.34-1.58,2.05-5.28-1.26-7.8-3.47-9.22-6.62-1.18-2.52-.87-4.73-5.36-8.82Z"/>
        <path d="M26.5,74.37c1.97-1.58,4.18-2.13,7.17-2.36,3.55-.32,5.36,1.02,7.8.47-.08.39-.08.87-.08,1.34-2.05,1.18-3.86,1.97-5.91,1.89-2.92-.16-5.36-1.5-8.98-1.34Z"/>
        <path d="M39.5,44.66c3.31.79,5.67,2.05,7.56,3.78,1.58,1.5,1.97,3.39,3.55,5.12-.47.32-.87.71-1.26,1.1-2.44-.79-4.57-1.97-5.99-3.7-1.65-2.13-2.21-4.25-3.86-6.3Z"/>
        <path d="M42.1,79.41c-8.51,5.36-14.02.95-21.51-.71,10.87-7.25,12.13,1.5,21.04-2.13.08.95.24,1.89.47,2.84Z"/>
        <path d="M43.21,63.97c-2.28-.24-2.99.55-5.59-.32-2.36-.79-4.41-3.23-8.59-5.28,7.72-3.15,10.24,1.81,14.81,4.18-.24.39-.47.87-.63,1.42Z"/>
        <path d="M85.99,96.59c1.73,1.58,2.6,3.31,3.78,4.65,1.65,1.97,3.7,2.99,7.25,4.25-2.21-2.28-2.76-4.81-4.73-7.01-1.34-1.58-3.62-2.13-5.04-2.84-.39.32-.79.63-1.26.95Z"/>
        <path d="M89.53,93.59c1.89,1.26,4.41,3.55,5.67,7.01.87,2.52,4.49,5.67,9.85,7.01-2.68-3.23-2.99-5.12-3.86-7.17-.87-2.13-1.89-4.02-4.1-5.99-1.73-1.5-4.57-2.36-6.15-2.44-.47.55-.95,1.1-1.42,1.58Z"/>
        <path d="M93.32,88.63c3.55,2.6,6.85,4.81,12.69,3.78-2.28-1.02-3.94-2.52-5.67-3.7-1.65-1.02-3.55-1.81-6.07-1.73-.32.55-.55,1.1-.95,1.65Z"/>
        <path d="M95.99,67.75c4.81.08,8.75-3.07,10.48-7.41-4.1,3.62-6.54,3.31-8.59,3.86-1.02.32-2.13,1.18-2.6,1.58.24.63.47,1.34.71,1.97Z"/>
        <path d="M100.33,45.61c-1.89,2.36-3.55,4.57-6.15,5.83-2.28,1.18-4.18,2.68-4.96,4.57l1.65,1.89c4.88-2.05,9.06-6.93,9.45-12.29Z"/>
        <path d="M100.64,40.57c-4.1,3.55-7.25,3.15-10.4,4.88-2.6,1.5-4.1,4.57-4.33,7.56.16.24.39.39.63.55.32.24.63.55.95.87,2.99-4.25,6.38-3.86,9.45-6.46,1.26-1.02,2.99-2.68,3.7-7.41Z"/>
        <path d="M96.7,79.02c4.49.79,8.67.24,12.61-2.13-2.36.16-5.12-.55-7.48-.55-1.81,0-3.55.32-4.88.79-.08.63-.08,1.26-.24,1.89Z"/>
        <path d="M109.62,54.04c-5.59,2.13-7.33,1.26-10.72,2.28-2.6.79-4.65,2.52-5.91,4.65.47.79.95,1.58,1.34,2.44,2.92-1.5,5.91-1.42,8.43-2.44,2.44-1.02,4.33-3.23,6.85-6.93Z"/>
        <path d="M97.02,74.37c2.84-.71,4.18.79,7.25,1.18s7.25-.47,10.24-3.31c-4.18.08-5.83-1.65-10.01-2.28-3.15-.55-6.15.16-7.8,1.26.16,1.02.24,2.13.32,3.15Z"/>
        <path d="M95.29,84.61c1.1.24,2.21.63,3.31,1.26,1.1.55,2.21,1.42,3.39,2.44,2.6,2.28,5.44,3.7,10.72,2.05-4.65-2.92-6.3-5.91-8.35-6.93-2.21-1.1-6.54-1.34-8.51-.55-.16.63-.32,1.18-.55,1.73Z"/>
        <path d="M45.49,31.9c3.78,1.97,6.38,4.73,7.72,7.96,1.42,3.62,1.02,6.78,3.39,9.77-.79.39-1.58.79-2.28,1.26-3.55-1.89-5.2-4.49-5.75-7.48-.79-4.18-.32-7.33-3.07-11.5Z"/>
        <path d="M52.9,36.08c3.31,2.13,5.83,5.2,6.78,7.64.55,1.34.71,2.76.95,4.41-.47.16-1.02.32-1.58.55-1.34-.71-2.6-2.05-3.31-3.7-1.34-3.15-.79-5.12-2.84-8.9Z"/>
        <path d="M65.35,27.65c1.58,1.81,2.44,4.02,2.84,7.25.32,2.6-3.07,7.33-1.34,12.21-.95.08-1.89.16-2.76.32-1.81-2.6-2.44-5.67-2.05-8.59.55-4.33,2.92-7.25,3.31-11.19Z"/>
        <path d="M72.2,41.2c0,2.68-1.02,4.1-1.1,5.99-.63-.08-1.18-.08-1.81-.08-.63-1.5-1.18-2.84-1.1-4.25.16-2.6,1.5-5.28,1.42-9.85,2.13,2.76,2.6,7.01,2.6,8.19Z"/>
        <path d="M74.56,47.74c-.71-9.06,5.99-9.22,9.14-17.18,1.02,2.92,1.02,7.33-.47,9.85-2.6,4.57-3.78,4.1-5.44,8.27-1.1-.39-2.13-.71-3.23-.95Z"/>
        <path d="M82.36,50.73c.39-.95,1.26-1.81,1.97-2.99.95-1.73,1.89-5.28.79-8.9-.63,2.21-1.26,4.73-2.52,5.99-1.42,1.42-2.13,3.15-1.97,5.04.55.24,1.18.55,1.73.87Z"/>
      </g>
      <rect class="cls-1" width="135.21" height="135.21"/>
    </g>
  </g>
</svg>