<?xml version="1.0" encoding="UTF-8"?>
<svg id="Layer_2" data-name="Layer 2" xmlns="http://www.w3.org/2000/svg" viewBox="0 0 135.21 135.21">
  <defs>
    <style>
      .cls-1 {
        fill: none;
      }
    </style>
  </defs>
  <g id="Layer_1-2" data-name="Layer 1">
    <g>
      <path id="path794" d="M48.38,80.66s-4.03,5.21-.58,11.58c4.14,7.64,9.86,11.28,20.28,11.28s17.63-4.34,20.52-11.28c2.9-6.95-1.14-11.29-1.14-11.29l-18.53-20.84-20.56,20.55ZM33.64,25.68h19.39l15.34,15.05,15.34-15.05h19.39l-25.47,24.89,21.7,22.86s7.81,8.1,4.63,17.08c-2.57,7.25-13.02,18.81-35.6,18.81s-34.73-13.31-36.47-19.1c-1.73-5.79.86-12.73,3.74-16.79,3.26-4.59,22.88-23.44,22.88-23.44l-24.89-24.31"/>
      <rect class="cls-1" width="135.21" height="135.21"/>
    </g>
  </g>
</svg>